<?xml version="1.0" encoding="UTF-8" standalone="no"?>
<!-- Creator: CorelDRAW -->

<svg
   xml:space="preserve"
   width="3750px"
   height="1000px"
   version="1.1"
   style="shape-rendering:geometricPrecision; text-rendering:geometricPrecision; image-rendering:optimizeQuality; fill-rule:evenodd; clip-rule:evenodd"
   viewBox="0 0 3750 1000"
   id="svg145"
   sodipodi:docname="miniwobplusplus-text.svg"
   inkscape:version="1.2.1 (9c6d41e410, 2022-07-14)"
   inkscape:export-filename="miniwobplusplus-text.png"
   inkscape:export-xdpi="96"
   inkscape:export-ydpi="96"
   xmlns:inkscape="http://www.inkscape.org/namespaces/inkscape"
   xmlns:sodipodi="http://sodipodi.sourceforge.net/DTD/sodipodi-0.dtd"
   xmlns="http://www.w3.org/2000/svg"
   xmlns:svg="http://www.w3.org/2000/svg"><sodipodi:namedview
   id="namedview147"
   pagecolor="#ffffff"
   bordercolor="#666666"
   borderopacity="1.0"
   inkscape:showpageshadow="2"
   inkscape:pageopacity="0.0"
   inkscape:pagecheckerboard="0"
   inkscape:deskcolor="#d1d1d1"
   showgrid="false"
   inkscape:zoom="0.13995495"
   inkscape:cx="1779.1439"
   inkscape:cy="500.16095"
   inkscape:window-width="1538"
   inkscape:window-height="877"
   inkscape:window-x="1974"
   inkscape:window-y="-8"
   inkscape:window-maximized="1"
   inkscape:current-layer="Layer_x0020_1"
   showguides="true"><inkscape:grid
     type="xygrid"
     id="grid2199" /><sodipodi:guide
     position="760,440"
     orientation="1,0"
     id="guide2201"
     inkscape:locked="false" /><sodipodi:guide
     position="920,460"
     orientation="1,0"
     id="guide2203"
     inkscape:locked="false" /></sodipodi:namedview>
 <defs
   id="defs139"><rect
   x="920"
   y="283.79753"
   width="1433.9645"
   height="452.90976"
   id="rect352" />
  <style
   type="text/css"
   id="style137">
   <![CDATA[
    .str0 {stroke:#373435;stroke-width:2.36;stroke-miterlimit:22.9256}
    .fil0 {fill:none}
   ]]>
  </style>
 <style
   type="text/css"
   id="style237">
   <![CDATA[
    .str0 {stroke:#373435;stroke-width:2.36;stroke-miterlimit:22.9256}
    .fil0 {fill:none}
   ]]>
  </style></defs>
 <g
   id="Layer_x0020_1"
   inkscape:label="Layer 1">
  <metadata
   id="CorelCorpID_0Corel-Layer" />
  
 <rect
   style="fill:#ffffff;stroke-width:15;stroke-linecap:round"
   id="rect572"
   width="3750"
   height="1000"
   x="0"
   y="0"
   ry="300"
   sodipodi:insensitive="true" /><g
   id="g475"
   transform="translate(234.4765)"><g
     style="clip-rule:evenodd;fill-rule:evenodd;image-rendering:optimizeQuality;shape-rendering:geometricPrecision;text-rendering:geometricPrecision"
     id="g296"
     transform="matrix(0.53058894,0,0,0.53058894,229.9743,234.70458)"><g
       id="layer1"
       inkscape:label="Layer 2"><g
         id="g1445"
         transform="matrix(1.1040892,0,0,1.1040892,-52.64068,-60.017987)"
         style="stroke-width:18.1145;stroke-dasharray:none"><g
           id="g1440"
           style="stroke-width:18.1145;stroke-dasharray:none"><path
             style="opacity:1;fill:none;stroke:#000000;stroke-width:18.1145;stroke-linecap:round;stroke-linejoin:round;stroke-dasharray:none;paint-order:stroke fill markers"
             d="M 434.28445,313.83837 H 273.6115 c -29.3265,0 -29.3265,0 -29.3265,32.74451 v 350.12661 c 0,24.27055 0,24.27055 22.61626,24.27055 h 191.83996 c 16.25739,0 15.08917,-11.72253 14.62794,-16.35066 L 425.80233,227.32077 c -3.28539,-32.96717 21.89423,-46.47872 45.80344,-25.44636 l 459.20912,371.66207 c 13.44524,11.71308 12.39664,-5.94141 12.39664,-5.94141 V 335.25931 c 0,-21.42094 0,-21.42094 -13.81975,-37.95529 L 766.3618,102.2503 C 753.21209,86.517603 753.21209,86.5176 729.03086,86.517603 l -581.442,-3e-6 c -44.734,0 -89.910457,20.45179 -89.910457,91.60688 v 661.60521 c 0,67.42816 46.628947,88.21403 89.910457,88.21403 h 420.00621 l 17.56707,-0.56459 c 11.66292,0.97191 11.1599,-11.19602 11.1599,-11.19602 -29.07102,-54.26156 83.71382,-149.04948 126.16592,-69.66773 20.6935,38.4806 50.43785,93.99892 100.27941,66.39436 50.25563,-27.83389 20.51129,-83.35222 -0.2089,-122.02681 -42.4254,-79.18776 91.58204,-121.0848 120.65306,-66.82324"
             id="path1135"
             sodipodi:nodetypes="cccccccscccccccssssccccscc" /><path
             style="opacity:1;fill:none;stroke:#000000;stroke-width:18.1145;stroke-linecap:round;stroke-linejoin:round;stroke-dasharray:none;paint-order:stroke fill markers"
             d="M 943.21153,86.5176 762.59835,302.60838 c -9.38626,11.22999 -9.38626,11.22999 -23.28831,11.22999 H 615.80178"
             id="path1267"
             sodipodi:nodetypes="cccc" /></g></g></g></g><text
     xml:space="preserve"
     style="font-style:normal;font-variant:normal;font-weight:200;font-stretch:normal;font-size:490px;line-height:1.25;font-family:'Source Sans Pro';-inkscape-font-specification:'Source Sans Pro Ultra-Light'"
     x="871"
     y="661.21002"
     id="text358"><tspan
       sodipodi:role="line"
       id="tspan356"
       x="871"
       y="661.21002">MiniWoB++</tspan></text></g></g>
</svg>
